<svg viewBox="0 0 282.88 61.87" xmlns="http://www.w3.org/2000/svg"><g fill="#1e2a63"><path d="m0 0v61.87h16.61v-46.83h11.24v46.83h16.61v-46.83h11.15v46.83h16.61v-61.87z"/><path d="m172.57 0v23.58h-15.56v-23.58h-16.61v61.87h16.61v-23.25h15.56v23.25h16.61v-61.87z"/><path d="m200.09 0v61.87h35.93v-15.07h-19.32v-46.8z"/><path d="m242.54 0v61.87h40.34v-15.07h-23.72v-8.81h23.72v-14.41h-23.72v-8.52h23.72v-15.06z"/><path d="m99.63 15.04h13.56v16.7h-13.56zm-16.61-15.04v61.87h16.61v-15.09h13.56v15.09h16.61v-61.87h-46.79z"/></g></svg>